<svg width="1515" height="577" viewBox="0 0 1515 577" fill="none" xmlns="http://www.w3.org/2000/svg">
<rect width="1515" height="577" fill="#0B1220"/>
<path d="M1336.38 161.479V415.949H1295.37L1175.47 242.616H1173.36V415.949H1127.26V161.479H1168.51L1288.29 334.936H1290.53V161.479H1336.38Z" fill="white"/>
<path d="M1066.18 288.714C1066.18 316.132 1061.05 339.616 1050.78 359.165C1040.59 378.631 1026.67 393.542 1009.03 403.896C991.465 414.25 971.543 419.428 949.261 419.428C926.978 419.428 907.015 414.25 889.371 403.896C871.81 393.459 857.894 378.507 847.622 359.041C837.433 339.492 832.339 316.049 832.339 288.714C832.339 261.295 837.433 237.853 847.622 218.387C857.894 198.838 871.81 183.886 889.371 173.532C907.015 163.177 926.978 158 949.261 158C971.543 158 991.465 163.177 1009.03 173.532C1026.67 183.886 1040.59 198.838 1050.78 218.387C1061.05 237.853 1066.18 261.295 1066.18 288.714ZM1019.84 288.714C1019.84 269.413 1016.81 253.136 1010.77 239.882C1004.8 226.546 996.518 216.482 985.915 209.689C975.312 202.814 963.094 199.376 949.261 199.376C935.427 199.376 923.209 202.814 912.606 209.689C902.003 216.482 893.678 226.546 887.631 239.882C881.667 253.136 878.685 269.413 878.685 288.714C878.685 308.014 881.667 324.333 887.631 337.669C893.678 350.923 902.003 360.987 912.606 367.863C923.209 374.655 935.427 378.051 949.261 378.051C963.094 378.051 975.312 374.655 985.915 367.863C996.518 360.987 1004.8 350.923 1010.77 337.669C1016.81 324.333 1019.84 308.014 1019.84 288.714Z" fill="white"/>
<path d="M771.387 161.479V415.949H725.289V161.479H771.387Z" fill="white"/>
<path d="M228.204 415.949H179L268.586 161.479H325.494L415.204 415.949H366L298.034 213.665H296.046L228.204 415.949ZM229.819 316.174H364.012V353.201H229.819V316.174Z" fill="white"/>
<path d="M496.874 160.531L497.165 161.015L552.912 253.72H553.77L609.764 161.014L610.056 160.531H651.269L650.357 162.046L617.857 216.016L617.856 216.015L581.857 276.014L581.847 276.032L552.347 323.032L496.546 416.513L496.255 417H440.692L441.661 415.466L521.716 288.761L442.652 162.06L441.698 160.531H496.874Z" fill="white" stroke="white" stroke-width="2"/>
<path d="M592.268 299.435L662.284 416.435L663.19 417.948H613.938L613.646 417.468L565.646 338.52L565.317 337.981L565.663 337.452L590.573 299.401L591.447 298.065L592.268 299.435Z" fill="#2F80ED" stroke="#2F80ED" stroke-width="2"/>
</svg>
