<svg width="512" height="512" viewBox="0 0 512 512" fill="none" xmlns="http://www.w3.org/2000/svg">
<path d="M201.367 127L201.658 127.484L257.405 220.189H258.264L314.258 127.483L314.55 127H355.763L354.851 128.516L322.351 182.485L322.35 182.484L286.351 242.483L286.341 242.501L256.841 289.501L201.039 382.982L200.748 383.47H145.186L146.154 381.936L226.21 255.23L147.146 128.529L146.191 127H201.367Z" fill="white" stroke="white" stroke-width="2"/>
<path d="M296.761 265.904L366.778 382.904L367.684 384.418H318.431L318.139 383.938L270.139 304.989L269.811 304.45L270.157 303.922L295.067 265.87L295.941 264.534L296.761 265.904Z" fill="#2F80ED" stroke="#2F80ED" stroke-width="2"/>
</svg>
